Alice Cooper Live At Montreux 2005 Mkv 1080p Dts 


Tracks:

    "Department Of Youth"
    "No More Mr. Nice Guy"
    "Dirty Diamonds"
    "Billion Dollare Baby"
    "Be My Lover"
    "Lost In America"
    "I Never Cry"
    "Woman Of Mass Destruction"
    "I'm Eighteen"
    "Between High School And The Old School"
    "What Do You Want From Me?"
    "Is It My Body?"
    "Go To Hell"
    "The Black Widow"
    "Gimme"
    "Feed My Frankenstein"
    "Welcome To My Nightmare"
    "The Awakening"
    "Steven"
    "Only Women Bleed"
    21 "Ballad Of Dwight Fry"
    "Killer"
    "I Love The Dead"
    "School's Out"
    "Poison"
    "Wish I Were Born In Beverly Hills"
    "Under My Wheels"

General 
Unique ID : 170693409801044280235270387734072510126 (0x806A5ADC55A8C916ACFE08E824CFC6AE) 
Complete name : C:UsersMARCVideosNew folderAlice Cooper Live At Montreux 2005Mkv 1080p Dts.mkv 
Format : Matroska 
Format version : Version 2 
File size : 5.56 GiB 
Duration : 1h 33mn 
Overall bit rate mode : Variable 
Overall bit rate : 8 532 Kbps 
Movie name : Alice Cooper Live At Montreux 2005 
Encoded date : UTC 2012-10-17 14:14:10 
Writing application : mkvmerge v5.7.0 ('The Whirlwind') built on Jul 8 2012 20:08:51 
Writing library : libebml v1.2.3 + libmatroska v1.3.0 

Video 
ID : 1 
Format : AVC 
Format/Info : Advanced Video Codec 
Format profile : High@L4.0 
Format settings, CABAC : Yes 
Format settings, ReFrames : 3 frames 
Codec ID : V_MPEG4/ISO/AVC 
Duration : 1h 33mn 
Bit rate mode : Variable 
Bit rate : 6 853 Kbps 
Maximum bit rate : 25.0 Mbps 
Width : 1 920 pixels 
Height : 1 080 pixels 
Display aspect ratio : 16:9 
Frame rate mode : Constant 
Frame rate : 29.970 fps 
Color space : YUV 
Chroma subsampling : 4:2:0 
Bit depth : 8 bits 
Scan type : Progressive 
Bits/(Pixel*Frame) : 0.110 
Stream size : 4.47 GiB (80%) 
Writing library : x264 core 125 r2208 d9d2288 
Encoding settings : cabac=1 / ref=3 / deblock=1:0:0 / analyse=0x3:0x113 / me=hex / subme=7 / psy=1 / psy_rd=1.00:0.00 / mixed_ref=1 / me_range=16 / chroma_me=1 / trellis=1 / 8x8dct=1 / cqm=0 / deadzone=21,11 / fast_pskip=1 / chroma_qp_offset=-2 / threads=12 / lookahead_threads=2 / sliced_threads=0 / nr=0 / decimate=1 / interlaced=0 / bluray_compat=0 / constrained_intra=0 / bframes=3 / b_pyramid=0 / b_adapt=1 / b_bias=0 / direct=1 / weightb=1 / open_gop=0 / weightp=2 / keyint=300 / keyint_min=30 / scenecut=40 / intra_refresh=0 / rc_lookahead=40 / rc=crf / mbtree=1 / crf=24.0 / qcomp=0.60 / qpmin=0 / qpmax=69 / qpstep=4 / vbv_maxrate=25000 / vbv_bufsize=25000 / crf_max=0.0 / nal_hrd=vbr / ip_ratio=1.40 / aq=1:1.00 
Default : Yes 
Forced : No 

Audio 
ID : 2 
Format : DTS 
Format/Info : Digital Theater Systems 
Codec ID : A_DTS 
Duration : 1h 33mn 
Bit rate mode : Constant 
Bit rate : 1 510 Kbps 
Channel(s) : 6 channels 
Channel positions : Front: L C R, Side: L R, LFE 
Sampling rate : 48.0 KHz 
Bit depth : 16 bits 
Compression mode : Lossy 
Stream size : 1 008 MiB (18%) 
Language : English 
Default : Yes 
Forced : No 

Menu 
00:00:00.000 : en:Chapter 00 
00:02:56.609 : en:Chapter 01 
00:05:56.856 : en:Chapter 02 
00:09:42.648 : en:Chapter 03 
00:13:18.531 : en:Chapter 04 
00:16:36.762 : en:Chapter 05 
00:21:03.562 : en:Chapter 06 
00:23:58.804 : en:Chapter 07 
00:27:50.669 : en:Chapter 08 
00:32:02.954 : en:Chapter 09 
00:34:58.296 : en:Chapter 10 
00:38:14.492 : en:Chapter 11 
00:41:16.674 : en:Chapter 12 
00:44:12.650 : en:Chapter 13 
00:50:07.738 : en:Chapter 14 
00:53:13.557 : en:Chapter 15 
00:56:39.095 : en:Chapter 16 
00:59:27.564 : en:Chapter 17 
01:00:53.049 : en:Chapter 18 
01:02:38.955 : en:Chapter 19 
01:05:24.921 : en:Chapter 20 
01:09:27.196 : en:Chapter 21 
01:11:53.575 : en:Chapter 22 
01:14:17.586 : en:Chapter 23 
01:19:14.750 : en:Chapter 24 
01:24:10.045 : en:Chapter 25 
01:27:19.734 : en:Chapter 26 

